{
    "asset" : {
        "generator" : "Khronos glTF Blender I/O v1.2.75",
        "version" : "2.0"
    },
    "scene" : 0,
    "scenes" : [
        {
            "name" : "Scene",
            "nodes" : [
                0,
                1
            ]
        }
    ],
    "nodes" : [
        {
            "mesh" : 0,
            "name" : "DoorFrame"
        },
        {
            "mesh" : 1,
            "name" : "DoorMain",
            "translation" : [
                -51.87120819091797,
                -1.3620659112930298,
                0.1627807766199112
            ]
        }
    ],
    "materials" : [
        {
            "doubleSided" : true,
            "emissiveFactor" : [
                0,
                0,
                0
            ],
            "name" : "transparentShader",
            "pbrMetallicRoughness" : {
                "baseColorFactor" : [
                    0.800000011920929,
                    0.800000011920929,
                    0.800000011920929,
                    1
                ],
                "metallicFactor" : 0,
                "roughnessFactor" : 0
            }
        }
    ],
    "meshes" : [
        {
            "name" : "door_001",
            "primitives" : [
                {
                    "attributes" : {
                        "POSITION" : 0,
                        "NORMAL" : 1,
                        "TEXCOORD_0" : 2
                    },
                    "indices" : 3,
                    "material" : 0
                }
            ]
        },
        {
            "name" : "door_001.006",
            "primitives" : [
                {
                    "attributes" : {
                        "POSITION" : 4,
                        "NORMAL" : 5,
                        "TEXCOORD_0" : 6
                    },
                    "indices" : 7,
                    "material" : 0
                }
            ]
        }
    ],
    "accessors" : [
        {
            "bufferView" : 0,
            "componentType" : 5126,
            "count" : 1202,
            "max" : [
                51.47096252441406,
                206.23956298828125,
                6.538215160369873
            ],
            "min" : [
                -57.59204864501953,
                -0.26876100897789,
                -6.439496994018555
            ],
            "type" : "VEC3"
        },
        {
            "bufferView" : 1,
            "componentType" : 5126,
            "count" : 1202,
            "type" : "VEC3"
        },
        {
            "bufferView" : 2,
            "componentType" : 5126,
            "count" : 1202,
            "type" : "VEC2"
        },
        {
            "bufferView" : 3,
            "componentType" : 5123,
            "count" : 4956,
            "type" : "SCALAR"
        },
        {
            "bufferView" : 4,
            "componentType" : 5126,
            "count" : 4315,
            "max" : [
                97.82568359375,
                200.00001525878906,
                7.125482082366943
            ],
            "min" : [
                -3.814697265625e-06,
                0,
                -6.846453666687012
            ],
            "type" : "VEC3"
        },
        {
            "bufferView" : 5,
            "componentType" : 5126,
            "count" : 4315,
            "type" : "VEC3"
        },
        {
            "bufferView" : 6,
            "componentType" : 5126,
            "count" : 4315,
            "type" : "VEC2"
        },
        {
            "bufferView" : 7,
            "componentType" : 5123,
            "count" : 16002,
            "type" : "SCALAR"
        }
    ],
    "bufferViews" : [
        {
            "buffer" : 0,
            "byteLength" : 14424,
            "byteOffset" : 0
        },
        {
            "buffer" : 0,
            "byteLength" : 14424,
            "byteOffset" : 14424
        },
        {
            "buffer" : 0,
            "byteLength" : 9616,
            "byteOffset" : 28848
        },
        {
            "buffer" : 0,
            "byteLength" : 9912,
            "byteOffset" : 38464
        },
        {
            "buffer" : 0,
            "byteLength" : 51780,
            "byteOffset" : 48376
        },
        {
            "buffer" : 0,
            "byteLength" : 51780,
            "byteOffset" : 100156
        },
        {
            "buffer" : 0,
            "byteLength" : 34520,
            "byteOffset" : 151936
        },
        {
            "buffer" : 0,
            "byteLength" : 32004,
            "byteOffset" : 186456
        }
    ],
    "buffers" : [
        {
            "byteLength" : 218460,
            "uri" : "data:application/octet-stream;base64,"
        }
    ]
}
